Bitcount-VariationPixelsQ.ufo
<glyph name="Pix01@01" format="2">
  <advance width="100"/>
  <guideline x="50" y="133" angle="90" identifier="0TEQn04FOP"/>
  <guideline x="68" y="100" angle="0" identifier="j7AK2k8kV6"/>
  <guideline x="125" y="50" angle="0" identifier="VHhNmLRBqe"/>
  <outline>
    <contour>
      <point x="2" y="-10" type="line"/>
      <point x="2" y="2" type="line"/>
      <point x="2" y="2" type="line"/>
      <point x="2.0" y="2.0"/>
      <point x="2.0" y="2.0"/>
      <point x="2" y="2" type="curve"/>
      <point x="2" y="2" type="line"/>
      <point x="-10" y="2" type="line"/>
      <point x="-10" y="2" type="line"/>
      <point x="-10" y="2" type="line"/>
      <point x="-10.0" y="-4.7"/>
      <point x="-4.7" y="-10.0"/>
      <point x="2" y="-10" type="curve"/>
      <point x="2" y="-10" type="line"/>
    </contour>
    <contour>
      <point x="98" y="-10" type="line"/>
      <point x="98" y="-10" type="line"/>
      <point x="98" y="-10" type="line"/>
      <point x="104.7" y="-10.0"/>
      <point x="110.0" y="-4.7"/>
      <point x="110" y="2" type="curve"/>
      <point x="110" y="2" type="line"/>
      <point x="110" y="2" type="line"/>
      <point x="98" y="2" type="line"/>
      <point x="98" y="2" type="line"/>
      <point x="98.0" y="2.0"/>
      <point x="98.0" y="2.0"/>
      <point x="98" y="2" type="curve"/>
      <point x="98" y="2" type="line"/>
    </contour>
    <contour>
      <point x="98" y="110" type="line"/>
      <point x="98" y="98" type="line"/>
      <point x="98" y="98" type="line"/>
      <point x="98.0" y="98.0"/>
      <point x="98.0" y="98.0"/>
      <point x="98" y="98" type="curve"/>
      <point x="98" y="98" type="line"/>
      <point x="110" y="98" type="line"/>
      <point x="110" y="98" type="line"/>
      <point x="110" y="98" type="line"/>
      <point x="110.0" y="104.7"/>
      <point x="104.7" y="110.0"/>
      <point x="98" y="110" type="curve"/>
      <point x="98" y="110" type="line"/>
    </contour>
    <contour>
      <point x="2" y="110" type="line"/>
      <point x="2" y="110" type="line"/>
      <point x="2" y="110" type="line"/>
      <point x="-4.7" y="110.0"/>
      <point x="-10.0" y="104.7"/>
      <point x="-10" y="98" type="curve"/>
      <point x="-10" y="98" type="line"/>
      <point x="-10" y="98" type="line"/>
      <point x="2" y="98" type="line"/>
      <point x="2" y="98" type="line"/>
      <point x="2.0" y="98.0"/>
      <point x="2.0" y="98.0"/>
      <point x="2" y="98" type="curve"/>
      <point x="2" y="98" type="line"/>
    </contour>
  </outline>
</glyph>
<glyph name="Pix01@11" format="2">
  <advance width="100"/>
  <guideline x="50" y="133" angle="90" identifier="0TEQn04FOP"/>
  <guideline x="68" y="100" angle="0" identifier="j7AK2k8kV6"/>
  <guideline x="125" y="50" angle="0" identifier="VHhNmLRBqe"/>
  <outline>
    <contour>
      <point x="3" y="-50" type="line"/>
      <point x="3" y="2" type="line"/>
      <point x="3" y="2" type="line"/>
      <point x="3" y="2"/>
      <point x="3" y="2"/>
      <point x="3" y="2" type="curve"/>
      <point x="3" y="2" type="line"/>
      <point x="-49" y="2" type="line"/>
      <point x="-49" y="2" type="line"/>
      <point x="-49" y="2" type="line"/>
      <point x="-49" y="-26"/>
      <point x="-25" y="-50"/>
      <point x="3" y="-50" type="curve"/>
      <point x="3" y="-50" type="line"/>
    </contour>
    <contour>
      <point x="99" y="-50" type="line"/>
      <point x="99" y="-50" type="line"/>
      <point x="99" y="-50" type="line"/>
      <point x="127" y="-50"/>
      <point x="151" y="-26"/>
      <point x="151" y="2" type="curve"/>
      <point x="151" y="2" type="line"/>
      <point x="151" y="2" type="line"/>
      <point x="99" y="2" type="line"/>
      <point x="99" y="2" type="line"/>
      <point x="99" y="2"/>
      <point x="99" y="2"/>
      <point x="99" y="2" type="curve"/>
      <point x="99" y="2" type="line"/>
    </contour>
    <contour>
      <point x="99" y="150" type="line"/>
      <point x="99" y="98" type="line"/>
      <point x="99" y="98" type="line"/>
      <point x="99" y="98"/>
      <point x="99" y="98"/>
      <point x="99" y="98" type="curve"/>
      <point x="99" y="98" type="line"/>
      <point x="151" y="98" type="line"/>
      <point x="151" y="98" type="line"/>
      <point x="151" y="98" type="line"/>
      <point x="151" y="126"/>
      <point x="127" y="150"/>
      <point x="99" y="150" type="curve"/>
      <point x="99" y="150" type="line"/>
    </contour>
    <contour>
      <point x="3" y="150" type="line"/>
      <point x="3" y="150" type="line"/>
      <point x="3" y="150" type="line"/>
      <point x="-25" y="150"/>
      <point x="-49" y="126"/>
      <point x="-49" y="98" type="curve"/>
      <point x="-49" y="98" type="line"/>
      <point x="-49" y="98" type="line"/>
      <point x="3" y="98" type="line"/>
      <point x="3" y="98" type="line"/>
      <point x="3" y="98"/>
      <point x="3" y="98"/>
      <point x="3" y="98" type="curve"/>
      <point x="3" y="98" type="line"/>
    </contour>
  </outline>
</glyph>
<glyph name="Pix01@21_i" format="2">
  <advance width="100"/>
  <outline>
    <contour>
      <point x="-19" y="-100" type="line"/>
      <point x="-5" y="2" type="line"/>
      <point x="-5" y="2" type="line"/>
      <point x="-5.0" y="2.0"/>
      <point x="-5.0" y="2.0"/>
      <point x="-5" y="2" type="curve"/>
      <point x="-5" y="2" type="line"/>
      <point x="-107" y="2" type="line"/>
      <point x="-107" y="2" type="line"/>
      <point x="-107" y="2" type="line"/>
      <point x="-116.38" y="-58.300000000000004"/>
      <point x="-79.30000000000001" y="-100.0"/>
      <point x="-19" y="-100" type="curve"/>
      <point x="-19" y="-100" type="line"/>
    </contour>
    <contour>
      <point x="77" y="-100" type="line"/>
      <point x="77" y="-100" type="line"/>
      <point x="77" y="-100" type="line"/>
      <point x="137.3" y="-100.0"/>
      <point x="183.62" y="-58.300000000000004"/>
      <point x="193" y="2" type="curve"/>
      <point x="193" y="2" type="line"/>
      <point x="193" y="2" type="line"/>
      <point x="91" y="2" type="line"/>
      <point x="91" y="2" type="line"/>
      <point x="91.0" y="2.0"/>
      <point x="91.0" y="2.0"/>
      <point x="91" y="2" type="curve"/>
      <point x="91" y="2" type="line"/>
    </contour>
    <contour>
      <point x="119" y="200" type="line"/>
      <point x="105" y="98" type="line"/>
      <point x="105" y="98" type="line"/>
      <point x="105.0" y="98.0"/>
      <point x="105.0" y="98.0"/>
      <point x="105" y="98" type="curve"/>
      <point x="105" y="98" type="line"/>
      <point x="207" y="98" type="line"/>
      <point x="207" y="98" type="line"/>
      <point x="207" y="98" type="line"/>
      <point x="216.38" y="158.3"/>
      <point x="179.3" y="200.0"/>
      <point x="119" y="200" type="curve"/>
      <point x="119" y="200" type="line"/>
    </contour>
    <contour>
      <point x="23" y="200" type="line"/>
      <point x="23" y="200" type="line"/>
      <point x="23" y="200" type="line"/>
      <point x="-37.300000000000004" y="200.0"/>
      <point x="-83.62" y="158.3"/>
      <point x="-93" y="98" type="curve"/>
      <point x="-93" y="98" type="line"/>
      <point x="-93" y="98" type="line"/>
      <point x="9" y="98" type="line"/>
      <point x="9" y="98" type="line"/>
      <point x="9.0" y="98.0"/>
      <point x="9.0" y="98.0"/>
      <point x="9" y="98" type="curve"/>
      <point x="9" y="98" type="line"/>
    </contour>
  </outline>
</glyph>
<glyph name="Pix02@00" format="2">
  <advance width="100"/>
  <guideline x="50" y="133" angle="90" identifier="0TEQn04FOP"/>
  <guideline x="68" y="100" angle="0" identifier="j7AK2k8kV6"/>
  <guideline x="125" y="50" angle="0" identifier="VHhNmLRBqe"/>
  <outline>
    <contour>
      <point x="50" y="38" type="line"/>
      <point x="50" y="42" type="line"/>
      <point x="50" y="42" type="line"/>
      <point x="45" y="42"/>
      <point x="42" y="45"/>
      <point x="42" y="50" type="curve"/>
      <point x="42" y="50" type="line"/>
      <point x="38" y="50" type="line"/>
      <point x="38" y="50" type="line"/>
      <point x="38" y="50" type="line"/>
      <point x="38" y="43"/>
      <point x="43" y="38"/>
      <point x="50" y="38" type="curve"/>
      <point x="50" y="38" type="line"/>
    </contour>
    <contour>
      <point x="50" y="38" type="line"/>
      <point x="50" y="38" type="line"/>
      <point x="50" y="38" type="line"/>
      <point x="57" y="38"/>
      <point x="62" y="43"/>
      <point x="62" y="50" type="curve"/>
      <point x="62" y="50" type="line"/>
      <point x="62" y="50" type="line"/>
      <point x="58" y="50" type="line"/>
      <point x="58" y="50" type="line"/>
      <point x="58" y="45"/>
      <point x="55" y="42"/>
      <point x="50" y="42" type="curve"/>
      <point x="50" y="42" type="line"/>
    </contour>
    <contour>
      <point x="50" y="62" type="line"/>
      <point x="50" y="58" type="line"/>
      <point x="50" y="58" type="line"/>
      <point x="55" y="58"/>
      <point x="58" y="55"/>
      <point x="58" y="50" type="curve"/>
      <point x="58" y="50" type="line"/>
      <point x="62" y="50" type="line"/>
      <point x="62" y="50" type="line"/>
      <point x="62" y="50" type="line"/>
      <point x="62" y="57"/>
      <point x="57" y="62"/>
      <point x="50" y="62" type="curve"/>
      <point x="50" y="62" type="line"/>
    </contour>
    <contour>
      <point x="50" y="62" type="line"/>
      <point x="50" y="62" type="line"/>
      <point x="50" y="62" type="line"/>
      <point x="43" y="62"/>
      <point x="38" y="57"/>
      <point x="38" y="50" type="curve"/>
      <point x="38" y="50" type="line"/>
      <point x="38" y="50" type="line"/>
      <point x="42" y="50" type="line"/>
      <point x="42" y="50" type="line"/>
      <point x="42" y="55"/>
      <point x="45" y="58"/>
      <point x="50" y="58" type="curve"/>
      <point x="50" y="58" type="line"/>
    </contour>
  </outline>
</glyph>
<glyph name="Pix02@11_i" format="2">
  <advance width="100"/>
  <outline>
    <contour>
      <point x="-12" y="-52" type="line"/>
      <point x="-12" y="-48" type="line"/>
      <point x="-12" y="-48" type="line"/>
      <point x="-40.99999999999999" y="-48.0"/>
      <point x="-58.0" y="-28.0"/>
      <point x="-55" y="2" type="curve"/>
      <point x="-55" y="2" type="line"/>
      <point x="-59" y="2" type="line"/>
      <point x="-59" y="2" type="line"/>
      <point x="-59" y="2" type="line"/>
      <point x="-62.99999999999999" y="-30.0"/>
      <point x="-44.0" y="-52.0"/>
      <point x="-12" y="-52" type="curve"/>
      <point x="-12" y="-52" type="line"/>
    </contour>
    <contour>
      <point x="84" y="-52" type="line"/>
      <point x="84" y="-52" type="line"/>
      <point x="84" y="-52" type="line"/>
      <point x="116.0" y="-52.0"/>
      <point x="141.0" y="-31.0"/>
      <point x="145" y="2" type="curve"/>
      <point x="145" y="2" type="line"/>
      <point x="145" y="2" type="line"/>
      <point x="141" y="2" type="line"/>
      <point x="141" y="2" type="line"/>
      <point x="137.0" y="-28.0"/>
      <point x="114.0" y="-48.0"/>
      <point x="84" y="-48" type="curve"/>
      <point x="84" y="-48" type="line"/>
    </contour>
    <contour>
      <point x="112" y="152" type="line"/>
      <point x="112" y="148" type="line"/>
      <point x="112" y="148" type="line"/>
      <point x="141.0" y="148.0"/>
      <point x="158.0" y="128.0"/>
      <point x="155" y="98" type="curve"/>
      <point x="155" y="98" type="line"/>
      <point x="159" y="98" type="line"/>
      <point x="159" y="98" type="line"/>
      <point x="159" y="98" type="line"/>
      <point x="163.0" y="130.0"/>
      <point x="144.0" y="152.0"/>
      <point x="112" y="152" type="curve"/>
      <point x="112" y="152" type="line"/>
    </contour>
    <contour>
      <point x="16" y="152" type="line"/>
      <point x="16" y="152" type="line"/>
      <point x="16" y="152" type="line"/>
      <point x="-16.0" y="152.0"/>
      <point x="-41.00000000000001" y="131.0"/>
      <point x="-45" y="98" type="curve"/>
      <point x="-45" y="98" type="line"/>
      <point x="-45" y="98" type="line"/>
      <point x="-41" y="98" type="line"/>
      <point x="-41" y="98" type="line"/>
      <point x="-36.0" y="128.0"/>
      <point x="-12.999999999999996" y="148.0"/>
      <point x="16" y="148" type="curve"/>
      <point x="16" y="148" type="line"/>
    </contour>
  </outline>
</glyph>
<glyph name="Pix03@11_i" format="2">
  <advance width="100"/>
  <outline>
    <contour>
      <point x="-12" y="-52" type="line"/>
      <point x="-12" y="-48" type="line"/>
      <point x="-12" y="-48" type="line"/>
      <point x="-40.99999999999999" y="-48.0"/>
      <point x="-58.0" y="-28.0"/>
      <point x="-55" y="2" type="curve"/>
      <point x="-55" y="2" type="line"/>
      <point x="-59" y="2" type="line"/>
      <point x="-66" y="-52" type="line"/>
      <point x="-66" y="-52" type="line"/>
      <point x="-66.0" y="-52.0"/>
      <point x="-66.0" y="-52.0"/>
      <point x="-66" y="-52" type="curve"/>
      <point x="-66" y="-52" type="line"/>
    </contour>
    <contour>
      <point x="84" y="-52" type="line"/>
      <point x="138" y="-52" type="line"/>
      <point x="138" y="-52" type="line"/>
      <point x="138.0" y="-52.0"/>
      <point x="138.0" y="-52.0"/>
      <point x="138" y="-52" type="curve"/>
      <point x="138" y="-52" type="line"/>
      <point x="145" y="2" type="line"/>
      <point x="141" y="2" type="line"/>
      <point x="141" y="2" type="line"/>
      <point x="137.0" y="-28.0"/>
      <point x="114.0" y="-48.0"/>
      <point x="84" y="-48" type="curve"/>
      <point x="84" y="-48" type="line"/>
    </contour>
    <contour>
      <point x="112" y="152" type="line"/>
      <point x="112" y="148" type="line"/>
      <point x="112" y="148" type="line"/>
      <point x="141.99999999999997" y="148.0"/>
      <point x="159.0" y="128.0"/>
      <point x="155" y="98" type="curve"/>
      <point x="155" y="98" type="line"/>
      <point x="159" y="98" type="line"/>
      <point x="166" y="152" type="line"/>
      <point x="166" y="152" type="line"/>
      <point x="166.0" y="152.0"/>
      <point x="166.0" y="152.0"/>
      <point x="166" y="152" type="curve"/>
      <point x="166" y="152" type="line"/>
    </contour>
    <contour>
      <point x="16" y="152" type="line"/>
      <point x="-38" y="152" type="line"/>
      <point x="-38" y="152" type="line"/>
      <point x="-38.0" y="152.0"/>
      <point x="-38.0" y="152.0"/>
      <point x="-38" y="152" type="curve"/>
      <point x="-38" y="152" type="line"/>
      <point x="-45" y="98" type="line"/>
      <point x="-41" y="98" type="line"/>
      <point x="-41" y="98" type="line"/>
      <point x="-36.0" y="128.0"/>
      <point x="-12.999999999999996" y="148.0"/>
      <point x="16" y="148" type="curve"/>
      <point x="16" y="148" type="line"/>
    </contour>
  </outline>
</glyph>
<glyph name="Pix04@11_i" format="2">
  <advance width="100"/>
  <outline>
    <contour>
      <point x="-12" y="-52" type="line"/>
      <point x="-12" y="-52" type="line"/>
      <point x="-12" y="-52" type="line"/>
      <point x="-42.82" y="-15.82"/>
      <point x="-26.839999999999996" y="-34.18"/>
      <point x="-59" y="2" type="curve"/>
      <point x="-59" y="2" type="line"/>
      <point x="-59" y="2" type="line"/>
      <point x="-66" y="-52" type="line"/>
      <point x="-66" y="-52" type="line"/>
      <point x="-66.0" y="-52.0"/>
      <point x="-66.0" y="-52.0"/>
      <point x="-66" y="-52" type="curve"/>
      <point x="-66" y="-52" type="line"/>
    </contour>
    <contour>
      <point x="84" y="-52" type="line"/>
      <point x="138" y="-52" type="line"/>
      <point x="138" y="-52" type="line"/>
      <point x="138.0" y="-52.0"/>
      <point x="138.0" y="-52.0"/>
      <point x="138" y="-52" type="curve"/>
      <point x="138" y="-52" type="line"/>
      <point x="145" y="2" type="line"/>
      <point x="145" y="2" type="line"/>
      <point x="145" y="2" type="line"/>
      <point x="106.14" y="-32.84"/>
      <point x="126.88" y="-14.479999999999997"/>
      <point x="84" y="-52" type="curve"/>
      <point x="84" y="-52" type="line"/>
    </contour>
    <contour>
      <point x="112" y="152" type="line"/>
      <point x="112" y="152" type="line"/>
      <point x="112" y="152" type="line"/>
      <point x="144.16" y="115.82"/>
      <point x="128.18" y="134.18"/>
      <point x="159" y="98" type="curve"/>
      <point x="159" y="98" type="line"/>
      <point x="159" y="98" type="line"/>
      <point x="166" y="152" type="line"/>
      <point x="166" y="152" type="line"/>
      <point x="166.0" y="152.0"/>
      <point x="166.0" y="152.0"/>
      <point x="166" y="152" type="curve"/>
      <point x="166" y="152" type="line"/>
    </contour>
    <contour>
      <point x="16" y="152" type="line"/>
      <point x="-38" y="152" type="line"/>
      <point x="-38" y="152" type="line"/>
      <point x="-38.0" y="152.0"/>
      <point x="-38.0" y="152.0"/>
      <point x="-38" y="152" type="curve"/>
      <point x="-38" y="152" type="line"/>
      <point x="-45" y="98" type="line"/>
      <point x="-45" y="98" type="line"/>
      <point x="-45" y="98" type="line"/>
      <point x="-4.799999999999997" y="134.18"/>
      <point x="-25.54" y="115.82"/>
      <point x="16" y="152" type="curve"/>
      <point x="16" y="152" type="line"/>
    </contour>
  </outline>
</glyph>
<glyph name="Pix04@21_i" format="2">
  <advance width="100"/>
  <outline>
    <contour>
      <point x="-19" y="-102" type="line"/>
      <point x="-19" y="-100" type="line"/>
      <point x="-19" y="-100" type="line"/>
      <point x="-77.96000000000001" y="-33.0"/>
      <point x="-48.04" y="-67.68"/>
      <point x="-107" y="2" type="curve"/>
      <point x="-107" y="2" type="line"/>
      <point x="-109" y="2" type="line"/>
      <point x="-123" y="-102" type="line"/>
      <point x="-123" y="-102" type="line"/>
      <point x="-123.0" y="-102.0"/>
      <point x="-123.0" y="-102.0"/>
      <point x="-123" y="-102" type="curve"/>
      <point x="-123" y="-102" type="line"/>
    </contour>
    <contour>
      <point x="77" y="-102" type="line"/>
      <point x="181" y="-102" type="line"/>
      <point x="181" y="-102" type="line"/>
      <point x="181.0" y="-102.0"/>
      <point x="181.0" y="-102.0"/>
      <point x="181" y="-102" type="curve"/>
      <point x="181" y="-102" type="line"/>
      <point x="195" y="2" type="line"/>
      <point x="193" y="2" type="line"/>
      <point x="193" y="2" type="line"/>
      <point x="112.6" y="-69.02000000000001"/>
      <point x="152.04000000000002" y="-34.33999999999999"/>
      <point x="77" y="-100" type="curve"/>
      <point x="77" y="-100" type="line"/>
    </contour>
    <contour>
      <point x="119" y="202" type="line"/>
      <point x="119" y="200" type="line"/>
      <point x="119" y="200" type="line"/>
      <point x="176.62" y="134.33999999999997"/>
      <point x="146.7" y="169.02"/>
      <point x="207" y="98" type="curve"/>
      <point x="207" y="98" type="line"/>
      <point x="209" y="98" type="line"/>
      <point x="223" y="202" type="line"/>
      <point x="223" y="202" type="line"/>
      <point x="223.0" y="202.0"/>
      <point x="223.0" y="202.0"/>
      <point x="223" y="202" type="curve"/>
      <point x="223" y="202" type="line"/>
    </contour>
    <contour>
      <point x="23" y="202" type="line"/>
      <point x="-81" y="202" type="line"/>
      <point x="-81" y="202" type="line"/>
      <point x="-81.0" y="202.0"/>
      <point x="-81.0" y="202.0"/>
      <point x="-81" y="202" type="curve"/>
      <point x="-81" y="202" type="line"/>
      <point x="-95" y="98" type="line"/>
      <point x="-93" y="98" type="line"/>
      <point x="-93" y="98" type="line"/>
      <point x="-16.61999999999999" y="165.0"/>
      <point x="-56.06" y="130.32"/>
      <point x="23" y="200" type="curve"/>
      <point x="23" y="200" type="line"/>
    </contour>
  </outline>
</glyph>
<glyph name="Pix05@20_i" format="2">
  <advance width="100"/>
  <outline>
    <contour>
      <point x="38" y="-52" type="line"/>
      <point x="38" y="-48" type="line"/>
      <point x="-61" y="-48" type="line"/>
      <point x="-62.34" y="-48.0"/>
      <point x="-62.0" y="-48.34"/>
      <point x="-62" y="-47" type="curve"/>
      <point x="-48" y="50" type="line"/>
      <point x="-52" y="50" type="line"/>
      <point x="-66" y="-50" type="line"/>
      <point x="-66" y="-51" type="line"/>
      <point x="-66.0" y="-52.34"/>
      <point x="-66.34" y="-52.0"/>
      <point x="-65" y="-52" type="curve"/>
      <point x="-64" y="-52" type="line"/>
    </contour>
    <contour>
      <point x="34" y="-52" type="line"/>
      <point x="138" y="-52" type="line"/>
      <point x="138" y="-52" type="line"/>
      <point x="138.0" y="-52.0"/>
      <point x="138.0" y="-52.0"/>
      <point x="138" y="-52" type="curve"/>
      <point x="138" y="-52" type="line"/>
      <point x="152" y="50" type="line"/>
      <point x="148" y="50" type="line"/>
      <point x="134" y="-48" type="line"/>
      <point x="134.0" y="-48.0"/>
      <point x="134.0" y="-48.0"/>
      <point x="134" y="-48" type="curve"/>
      <point x="34" y="-48" type="line"/>
    </contour>
    <contour>
      <point x="62" y="152" type="line"/>
      <point x="62" y="148" type="line"/>
      <point x="162" y="148" type="line"/>
      <point x="162.0" y="148.0"/>
      <point x="162.0" y="148.0"/>
      <point x="162" y="148" type="curve"/>
      <point x="148" y="50" type="line"/>
      <point x="152" y="50" type="line"/>
      <point x="166" y="152" type="line"/>
      <point x="166" y="152" type="line"/>
      <point x="166.0" y="152.0"/>
      <point x="166.0" y="152.0"/>
      <point x="166" y="152" type="curve"/>
      <point x="166" y="152" type="line"/>
    </contour>
    <contour>
      <point x="66" y="152" type="line"/>
      <point x="-38" y="152" type="line"/>
      <point x="-38" y="152" type="line"/>
      <point x="-38.0" y="152.0"/>
      <point x="-38.0" y="152.0"/>
      <point x="-38" y="152" type="curve"/>
      <point x="-38" y="152" type="line"/>
      <point x="-52" y="50" type="line"/>
      <point x="-48" y="50" type="line"/>
      <point x="-34" y="148" type="line"/>
      <point x="-34.0" y="148.0"/>
      <point x="-34.0" y="148.0"/>
      <point x="-34" y="148" type="curve"/>
      <point x="66" y="148" type="line"/>
    </contour>
  </outline>
</glyph>
<glyph name="Pix06@11_i" format="2">
  <advance width="100"/>
  <outline>
    <contour>
      <point x="-12" y="-52" type="line"/>
      <point x="-5" y="2" type="line"/>
      <point x="-5" y="2" type="line"/>
      <point x="-5.0" y="2.0"/>
      <point x="-5.0" y="2.0"/>
      <point x="-5" y="2" type="curve"/>
      <point x="-5" y="2" type="line"/>
      <point x="-59" y="2" type="line"/>
      <point x="-66" y="-52" type="line"/>
      <point x="-66" y="-52" type="line"/>
      <point x="-66.0" y="-52.0"/>
      <point x="-66.0" y="-52.0"/>
      <point x="-66" y="-52" type="curve"/>
      <point x="-66" y="-52" type="line"/>
    </contour>
    <contour>
      <point x="84" y="-52" type="line"/>
      <point x="138" y="-52" type="line"/>
      <point x="138" y="-52" type="line"/>
      <point x="138.0" y="-52.0"/>
      <point x="138.0" y="-52.0"/>
      <point x="138" y="-52" type="curve"/>
      <point x="138" y="-52" type="line"/>
      <point x="145" y="2" type="line"/>
      <point x="91" y="2" type="line"/>
      <point x="91" y="2" type="line"/>
      <point x="91.0" y="2.0"/>
      <point x="91.0" y="2.0"/>
      <point x="91" y="2" type="curve"/>
      <point x="91" y="2" type="line"/>
    </contour>
    <contour>
      <point x="112" y="152" type="line"/>
      <point x="105" y="98" type="line"/>
      <point x="105" y="98" type="line"/>
      <point x="105.0" y="98.0"/>
      <point x="105.0" y="98.0"/>
      <point x="105" y="98" type="curve"/>
      <point x="105" y="98" type="line"/>
      <point x="159" y="98" type="line"/>
      <point x="166" y="152" type="line"/>
      <point x="166" y="152" type="line"/>
      <point x="166.0" y="152.0"/>
      <point x="166.0" y="152.0"/>
      <point x="166" y="152" type="curve"/>
      <point x="166" y="152" type="line"/>
    </contour>
    <contour>
      <point x="16" y="152" type="line"/>
      <point x="-38" y="152" type="line"/>
      <point x="-38" y="152" type="line"/>
      <point x="-38.0" y="152.0"/>
      <point x="-38.0" y="152.0"/>
      <point x="-38" y="152" type="curve"/>
      <point x="-38" y="152" type="line"/>
      <point x="-45" y="98" type="line"/>
      <point x="9" y="98" type="line"/>
      <point x="9" y="98" type="line"/>
      <point x="9.0" y="98.0"/>
      <point x="9.0" y="98.0"/>
      <point x="9" y="98" type="curve"/>
      <point x="9" y="98" type="line"/>
    </contour>
  </outline>
</glyph>
<glyph name="Pix06@21" format="2">
  <advance width="100"/>
  <guideline x="50" y="133" angle="90" identifier="0TEQn04FOP"/>
  <guideline x="68" y="100" angle="0" identifier="j7AK2k8kV6"/>
  <guideline x="125" y="50" angle="0" identifier="VHhNmLRBqe"/>
  <outline>
    <contour>
      <point x="34" y="-102" type="line"/>
      <point x="34" y="2" type="line"/>
      <point x="34" y="2" type="line"/>
      <point x="34.0" y="2.0"/>
      <point x="34.0" y="2.0"/>
      <point x="34" y="2" type="curve"/>
      <point x="34" y="2" type="line"/>
      <point x="-70" y="2" type="line"/>
      <point x="-70" y="-102" type="line"/>
      <point x="-70" y="-102" type="line"/>
      <point x="-70.0" y="-102.0"/>
      <point x="-70.0" y="-102.0"/>
      <point x="-70" y="-102" type="curve"/>
      <point x="-70" y="-102" type="line"/>
    </contour>
    <contour>
      <point x="130" y="-102" type="line"/>
      <point x="234" y="-102" type="line"/>
      <point x="234" y="-102" type="line"/>
      <point x="234.0" y="-102.0"/>
      <point x="234.0" y="-102.0"/>
      <point x="234" y="-102" type="curve"/>
      <point x="234" y="-102" type="line"/>
      <point x="234" y="2" type="line"/>
      <point x="130" y="2" type="line"/>
      <point x="130" y="2" type="line"/>
      <point x="130.0" y="2.0"/>
      <point x="130.0" y="2.0"/>
      <point x="130" y="2" type="curve"/>
      <point x="130" y="2" type="line"/>
    </contour>
    <contour>
      <point x="130" y="202" type="line"/>
      <point x="130" y="98" type="line"/>
      <point x="130" y="98" type="line"/>
      <point x="130.0" y="98.0"/>
      <point x="130.0" y="98.0"/>
      <point x="130" y="98" type="curve"/>
      <point x="130" y="98" type="line"/>
      <point x="234" y="98" type="line"/>
      <point x="234" y="202" type="line"/>
      <point x="234" y="202" type="line"/>
      <point x="234.0" y="202.0"/>
      <point x="234.0" y="202.0"/>
      <point x="234" y="202" type="curve"/>
      <point x="234" y="202" type="line"/>
    </contour>
    <contour>
      <point x="34" y="202" type="line"/>
      <point x="-70" y="202" type="line"/>
      <point x="-70" y="202" type="line"/>
      <point x="-70.0" y="202.0"/>
      <point x="-70.0" y="202.0"/>
      <point x="-70" y="202" type="curve"/>
      <point x="-70" y="202" type="line"/>
      <point x="-70" y="98" type="line"/>
      <point x="34" y="98" type="line"/>
      <point x="34" y="98" type="line"/>
      <point x="34.0" y="98.0"/>
      <point x="34.0" y="98.0"/>
      <point x="34" y="98" type="curve"/>
      <point x="34" y="98" type="line"/>
    </contour>
  </outline>
</glyph>
<glyph name="Pix07@01_i" format="2">
  <advance width="100"/>
  <outline>
    <contour>
      <point x="-6" y="-12" type="line"/>
      <point x="-5" y="2" type="line"/>
      <point x="-5" y="2" type="line"/>
      <point x="-5.0" y="2.0"/>
      <point x="-5.0" y="2.0"/>
      <point x="-5" y="2" type="curve"/>
      <point x="-5" y="2" type="line"/>
      <point x="-19" y="2" type="line"/>
      <point x="-20" y="-12" type="line"/>
      <point x="-20" y="-12" type="line"/>
      <point x="-20.0" y="-12.0"/>
      <point x="-20.0" y="-12.0"/>
      <point x="-20" y="-12" type="curve"/>
      <point x="-20" y="-12" type="line"/>
    </contour>
    <contour>
      <point x="89" y="-12" type="line"/>
      <point x="103" y="-12" type="line"/>
      <point x="103" y="-12" type="line"/>
      <point x="103.0" y="-12.0"/>
      <point x="103.0" y="-12.0"/>
      <point x="103" y="-12" type="curve"/>
      <point x="103" y="-12" type="line"/>
      <point x="104" y="2" type="line"/>
      <point x="90" y="2" type="line"/>
      <point x="90" y="2" type="line"/>
      <point x="90.0" y="2.0"/>
      <point x="90.0" y="2.0"/>
      <point x="90" y="2" type="curve"/>
      <point x="90" y="2" type="line"/>
    </contour>
    <contour>
      <point x="107" y="112" type="line"/>
      <point x="106" y="98" type="line"/>
      <point x="106" y="98" type="line"/>
      <point x="106.0" y="98.0"/>
      <point x="106.0" y="98.0"/>
      <point x="106" y="98" type="curve"/>
      <point x="106" y="98" type="line"/>
      <point x="120" y="98" type="line"/>
      <point x="121" y="112" type="line"/>
      <point x="121" y="112" type="line"/>
      <point x="121.0" y="112.0"/>
      <point x="121.0" y="112.0"/>
      <point x="121" y="112" type="curve"/>
      <point x="121" y="112" type="line"/>
    </contour>
    <contour>
      <point x="10" y="112" type="line"/>
      <point x="-4" y="112" type="line"/>
      <point x="-4" y="112" type="line"/>
      <point x="-4.0" y="112.0"/>
      <point x="-4.0" y="112.0"/>
      <point x="-4" y="112" type="curve"/>
      <point x="-4" y="112" type="line"/>
      <point x="-5" y="98" type="line"/>
      <point x="9" y="98" type="line"/>
      <point x="9" y="98" type="line"/>
      <point x="9.0" y="98.0"/>
      <point x="9.0" y="98.0"/>
      <point x="9" y="98" type="curve"/>
      <point x="9" y="98" type="line"/>
    </contour>
  </outline>
</glyph>
<glyph name="Pix08@00_i" format="2">
  <advance width="100"/>
  <outline>
    <contour>
      <point x="50.0" y="38.0" type="line"/>
      <point x="52.0" y="52.0" type="line"/>
      <point x="52.0" y="52.0" type="line"/>
      <point x="52.0" y="52.0"/>
      <point x="52.0" y="52.0"/>
      <point x="52.0" y="52.0" type="curve"/>
      <point x="52.0" y="52.0" type="line"/>
      <point x="38.0" y="52.0" type="line"/>
      <point x="38.0" y="48.0" type="line"/>
      <point x="48.0" y="48.0" type="line"/>
      <point x="48.0" y="48.0"/>
      <point x="48.0" y="48.0"/>
      <point x="48.0" y="48.0" type="curve"/>
      <point x="46.0" y="38.0" type="line"/>
    </contour>
    <contour>
      <point x="46.0" y="38.0" type="line"/>
      <point x="50.0" y="38.0" type="line"/>
      <point x="51.0" y="48.0" type="line"/>
      <point x="51.0" y="48.0"/>
      <point x="51.0" y="48.0"/>
      <point x="51.0" y="48.0" type="curve"/>
      <point x="62.0" y="48.0" type="line"/>
      <point x="62.0" y="52.0" type="line"/>
      <point x="49.0" y="52.0" type="line"/>
      <point x="49.0" y="52.0" type="line"/>
      <point x="49.0" y="52.0"/>
      <point x="49.0" y="52.0"/>
      <point x="49.0" y="52.0" type="curve"/>
      <point x="49.0" y="52.0" type="line"/>
    </contour>
    <contour>
      <point x="50.0" y="62.0" type="line"/>
      <point x="48.0" y="48.0" type="line"/>
      <point x="48.0" y="48.0" type="line"/>
      <point x="48.0" y="48.0"/>
      <point x="48.0" y="48.0"/>
      <point x="48.0" y="48.0" type="curve"/>
      <point x="48.0" y="48.0" type="line"/>
      <point x="62.0" y="48.0" type="line"/>
      <point x="62.0" y="52.0" type="line"/>
      <point x="52.0" y="52.0" type="line"/>
      <point x="52.0" y="52.0"/>
      <point x="52.0" y="52.0"/>
      <point x="52.0" y="52.0" type="curve"/>
      <point x="54.0" y="62.0" type="line"/>
    </contour>
    <contour>
      <point x="54.0" y="62.0" type="line"/>
      <point x="50.0" y="62.0" type="line"/>
      <point x="49.0" y="52.0" type="line"/>
      <point x="49.0" y="52.0"/>
      <point x="49.0" y="52.0"/>
      <point x="49.0" y="52.0" type="curve"/>
      <point x="38.0" y="52.0" type="line"/>
      <point x="38.0" y="48.0" type="line"/>
      <point x="51.0" y="48.0" type="line"/>
      <point x="51.0" y="48.0" type="line"/>
      <point x="51.0" y="48.0"/>
      <point x="51.0" y="48.0"/>
      <point x="51.0" y="48.0" type="curve"/>
      <point x="51.0" y="48.0" type="line"/>
    </contour>
  </outline>
</glyph>
<glyph name="Pix08@11" format="2">
  <advance width="100"/>
  <guideline x="50" y="133" angle="90" identifier="0TEQn04FOP"/>
  <guideline x="68" y="100" angle="0" identifier="j7AK2k8kV6"/>
  <guideline x="125" y="50" angle="0" identifier="VHhNmLRBqe"/>
  <guideline x="-13" y="25" angle="0" identifier="lhfIYr4Ekd"/>
  <guideline x="-22" y="75" angle="0" identifier="M8YhAuLaaj"/>
  <outline>
    <contour>
      <point x="2" y="-52" type="line"/>
      <point x="2" y="2" type="line"/>
      <point x="2" y="2" type="line"/>
      <point x="2.0" y="2.0"/>
      <point x="2.0" y="2.0"/>
      <point x="2" y="2" type="curve"/>
      <point x="2" y="2" type="line"/>
      <point x="-52" y="2" type="line"/>
      <point x="-52" y="-2" type="line"/>
      <point x="-2" y="-2" type="line"/>
      <point x="-2.0" y="-2.0"/>
      <point x="-2.0" y="-2.0"/>
      <point x="-2" y="-2" type="curve"/>
      <point x="-2" y="-52" type="line"/>
    </contour>
    <contour>
      <point x="98" y="-52" type="line"/>
      <point x="102" y="-52" type="line"/>
      <point x="102" y="-2" type="line"/>
      <point x="102.0" y="-2.0"/>
      <point x="102.0" y="-2.0"/>
      <point x="102" y="-2" type="curve"/>
      <point x="152" y="-2" type="line"/>
      <point x="152" y="2" type="line"/>
      <point x="98" y="2" type="line"/>
      <point x="98" y="2" type="line"/>
      <point x="98.0" y="2.0"/>
      <point x="98.0" y="2.0"/>
      <point x="98" y="2" type="curve"/>
      <point x="98" y="2" type="line"/>
    </contour>
    <contour>
      <point x="98" y="152" type="line"/>
      <point x="98" y="98" type="line"/>
      <point x="98" y="98" type="line"/>
      <point x="98.0" y="98.0"/>
      <point x="98.0" y="98.0"/>
      <point x="98" y="98" type="curve"/>
      <point x="98" y="98" type="line"/>
      <point x="152" y="98" type="line"/>
      <point x="152" y="102" type="line"/>
      <point x="102" y="102" type="line"/>
      <point x="102.0" y="102.0"/>
      <point x="102.0" y="102.0"/>
      <point x="102" y="102" type="curve"/>
      <point x="102" y="152" type="line"/>
    </contour>
    <contour>
      <point x="2" y="152" type="line"/>
      <point x="-2" y="152" type="line"/>
      <point x="-2" y="102" type="line"/>
      <point x="-2.0" y="102.0"/>
      <point x="-2.0" y="102.0"/>
      <point x="-2" y="102" type="curve"/>
      <point x="-52" y="102" type="line"/>
      <point x="-52" y="98" type="line"/>
      <point x="2" y="98" type="line"/>
      <point x="2" y="98" type="line"/>
      <point x="2.0" y="98.0"/>
      <point x="2.0" y="98.0"/>
      <point x="2" y="98" type="curve"/>
      <point x="2" y="98" type="line"/>
    </contour>
  </outline>
</glyph>
<glyph name="Pix08@11_i" format="2">
  <advance width="100"/>
  <outline>
    <contour>
      <point x="-5.0" y="-52.0" type="line"/>
      <point x="2.0" y="2.0" type="line"/>
      <point x="2.0" y="2.0" type="line"/>
      <point x="2.0" y="2.0"/>
      <point x="2.0" y="2.0"/>
      <point x="2.0" y="2.0" type="curve"/>
      <point x="2.0" y="2.0" type="line"/>
      <point x="-52.0" y="2.0" type="line"/>
      <point x="-52.0" y="-2.0" type="line"/>
      <point x="-2.0" y="-2.0" type="line"/>
      <point x="-2.0" y="-2.0"/>
      <point x="-2.0" y="-2.0"/>
      <point x="-2.0" y="-2.0" type="curve"/>
      <point x="-9.0" y="-52.0" type="line"/>
    </contour>
    <contour>
      <point x="91.0" y="-52.0" type="line"/>
      <point x="95.0" y="-52.0" type="line"/>
      <point x="102.0" y="-2.0" type="line"/>
      <point x="102.0" y="-2.0"/>
      <point x="102.0" y="-2.0"/>
      <point x="102.0" y="-2.0" type="curve"/>
      <point x="152.0" y="-2.0" type="line"/>
      <point x="152.0" y="2.0" type="line"/>
      <point x="98.0" y="2.0" type="line"/>
      <point x="98.0" y="2.0" type="line"/>
      <point x="98.0" y="2.0"/>
      <point x="98.0" y="2.0"/>
      <point x="98.0" y="2.0" type="curve"/>
      <point x="98.0" y="2.0" type="line"/>
    </contour>
    <contour>
      <point x="119.0" y="152.0" type="line"/>
      <point x="112.0" y="98.0" type="line"/>
      <point x="112.0" y="98.0" type="line"/>
      <point x="112.0" y="98.0"/>
      <point x="112.0" y="98.0"/>
      <point x="112.0" y="98.0" type="curve"/>
      <point x="112.0" y="98.0" type="line"/>
      <point x="166.0" y="98.0" type="line"/>
      <point x="166.0" y="102.0" type="line"/>
      <point x="116.0" y="102.0" type="line"/>
      <point x="116.0" y="102.0"/>
      <point x="116.0" y="102.0"/>
      <point x="116.0" y="102.0" type="curve"/>
      <point x="123.0" y="152.0" type="line"/>
    </contour>
    <contour>
      <point x="23.0" y="152.0" type="line"/>
      <point x="19.0" y="152.0" type="line"/>
      <point x="12.0" y="102.0" type="line"/>
      <point x="12.0" y="102.0"/>
      <point x="12.0" y="102.0"/>
      <point x="12.0" y="102.0" type="curve"/>
      <point x="-38.0" y="102.0" type="line"/>
      <point x="-38.0" y="98.0" type="line"/>
      <point x="16.0" y="98.0" type="line"/>
      <point x="16.0" y="98.0" type="line"/>
      <point x="16.0" y="98.0"/>
      <point x="16.0" y="98.0"/>
      <point x="16.0" y="98.0" type="curve"/>
      <point x="16.0" y="98.0" type="line"/>
    </contour>
  </outline>
</glyph>
<glyph name="Pix09@00" format="2">
  <advance width="100"/>
  <guideline x="50" y="133" angle="90" identifier="0TEQn04FOP"/>
  <guideline x="68" y="100" angle="0" identifier="j7AK2k8kV6"/>
  <guideline x="125" y="50" angle="0" identifier="VHhNmLRBqe"/>
  <guideline x="-13" y="25" angle="0" identifier="lhfIYr4Ekd"/>
  <guideline x="-22" y="75" angle="0" identifier="M8YhAuLaaj"/>
  <outline>
    <contour>
      <point x="52.0" y="38.0" type="line"/>
      <point x="52.0" y="52.0" type="line"/>
      <point x="52.0" y="52.0" type="line"/>
      <point x="52" y="52"/>
      <point x="52" y="52"/>
      <point x="52.0" y="52.0" type="curve"/>
      <point x="52.0" y="52.0" type="line"/>
      <point x="38.0" y="52.0" type="line"/>
      <point x="38.0" y="48.0" type="line"/>
      <point x="38.0" y="48.0" type="line"/>
      <point x="45" y="41"/>
      <point x="41" y="45"/>
      <point x="48.0" y="38.0" type="curve"/>
      <point x="48.0" y="38.0" type="line"/>
    </contour>
    <contour>
      <point x="48.0" y="38.0" type="line"/>
      <point x="52.0" y="38.0" type="line"/>
      <point x="52.0" y="38.0" type="line"/>
      <point x="59" y="45"/>
      <point x="55" y="41"/>
      <point x="62.0" y="48.0" type="curve"/>
      <point x="62.0" y="48.0" type="line"/>
      <point x="62.0" y="52.0" type="line"/>
      <point x="48.0" y="52.0" type="line"/>
      <point x="48.0" y="52.0" type="line"/>
      <point x="48" y="52"/>
      <point x="48" y="52"/>
      <point x="48.0" y="52.0" type="curve"/>
      <point x="48.0" y="52.0" type="line"/>
    </contour>
    <contour>
      <point x="48.0" y="62.0" type="line"/>
      <point x="48.0" y="48.0" type="line"/>
      <point x="48.0" y="48.0" type="line"/>
      <point x="48" y="48"/>
      <point x="48" y="48"/>
      <point x="48.0" y="48.0" type="curve"/>
      <point x="48.0" y="48.0" type="line"/>
      <point x="62.0" y="48.0" type="line"/>
      <point x="62.0" y="52.0" type="line"/>
      <point x="62.0" y="52.0" type="line"/>
      <point x="55" y="59"/>
      <point x="59" y="55"/>
      <point x="52.0" y="62.0" type="curve"/>
      <point x="52.0" y="62.0" type="line"/>
    </contour>
    <contour>
      <point x="52.0" y="62.0" type="line"/>
      <point x="48.0" y="62.0" type="line"/>
      <point x="48.0" y="62.0" type="line"/>
      <point x="41" y="55"/>
      <point x="45" y="59"/>
      <point x="38.0" y="52.0" type="curve"/>
      <point x="38.0" y="52.0" type="line"/>
      <point x="38.0" y="48.0" type="line"/>
      <point x="52.0" y="48.0" type="line"/>
      <point x="52.0" y="48.0" type="line"/>
      <point x="52" y="48"/>
      <point x="52" y="48"/>
      <point x="52.0" y="48.0" type="curve"/>
      <point x="52.0" y="48.0" type="line"/>
    </contour>
  </outline>
</glyph>
<glyph name="Pix09@21_i" format="2">
  <advance width="100"/>
  <outline>
    <contour>
      <point x="-19" y="-102" type="line"/>
      <point x="-5" y="2" type="line"/>
      <point x="-5" y="2" type="line"/>
      <point x="-5.0" y="2.0"/>
      <point x="-5.0" y="2.0"/>
      <point x="-5" y="2" type="curve"/>
      <point x="-5" y="2" type="line"/>
      <point x="-109" y="2" type="line"/>
      <point x="-109" y="-2" type="line"/>
      <point x="-109" y="-2" type="line"/>
      <point x="-66.12" y="-52.92"/>
      <point x="-68.56" y="-48.4"/>
      <point x="-23" y="-102" type="curve"/>
      <point x="-23" y="-102" type="line"/>
    </contour>
    <contour>
      <point x="77" y="-102" type="line"/>
      <point x="81" y="-102" type="line"/>
      <point x="81" y="-102" type="line"/>
      <point x="142.64" y="-48.4"/>
      <point x="136.04" y="-52.92"/>
      <point x="195" y="-2" type="curve"/>
      <point x="195" y="-2" type="line"/>
      <point x="195" y="2" type="line"/>
      <point x="91" y="2" type="line"/>
      <point x="91" y="2" type="line"/>
      <point x="91.0" y="2.0"/>
      <point x="91.0" y="2.0"/>
      <point x="91" y="2" type="curve"/>
      <point x="91" y="2" type="line"/>
    </contour>
    <contour>
      <point x="119" y="202" type="line"/>
      <point x="105" y="98" type="line"/>
      <point x="105" y="98" type="line"/>
      <point x="105.0" y="98.0"/>
      <point x="105.0" y="98.0"/>
      <point x="105" y="98" type="curve"/>
      <point x="105" y="98" type="line"/>
      <point x="209" y="98" type="line"/>
      <point x="209" y="102" type="line"/>
      <point x="209" y="102" type="line"/>
      <point x="166.12" y="152.92000000000002"/>
      <point x="168.56" y="148.4"/>
      <point x="123" y="202" type="curve"/>
      <point x="123" y="202" type="line"/>
    </contour>
    <contour>
      <point x="23" y="202" type="line"/>
      <point x="19" y="202" type="line"/>
      <point x="19" y="202" type="line"/>
      <point x="-42.64" y="148.4"/>
      <point x="-36.04" y="152.92000000000002"/>
      <point x="-95" y="102" type="curve"/>
      <point x="-95" y="102" type="line"/>
      <point x="-95" y="98" type="line"/>
      <point x="9" y="98" type="line"/>
      <point x="9" y="98" type="line"/>
      <point x="9.0" y="98.0"/>
      <point x="9.0" y="98.0"/>
      <point x="9" y="98" type="curve"/>
      <point x="9" y="98" type="line"/>
    </contour>
  </outline>
</glyph>
<glyph name="Pix10@00" format="2">
  <advance width="100"/>
  <guideline x="50" y="133" angle="90" identifier="0TEQn04FOP"/>
  <guideline x="68" y="100" angle="0" identifier="j7AK2k8kV6"/>
  <guideline x="125" y="50" angle="0" identifier="VHhNmLRBqe"/>
  <outline>
    <contour>
      <point x="52.0" y="38.0" type="line"/>
      <point x="52.0" y="52.0" type="line"/>
      <point x="52.0" y="52.0" type="line"/>
      <point x="52" y="52"/>
      <point x="52" y="52"/>
      <point x="52.0" y="52.0" type="curve"/>
      <point x="52.0" y="52.0" type="line"/>
      <point x="38.0" y="52.0" type="line"/>
      <point x="38.0" y="48.0" type="line"/>
      <point x="39.0" y="48.0" type="line"/>
      <point x="44" y="48"/>
      <point x="48" y="44"/>
      <point x="48.0" y="39.0" type="curve"/>
      <point x="48.0" y="38.0" type="line"/>
    </contour>
    <contour>
      <point x="48.0" y="38.0" type="line"/>
      <point x="52.0" y="38.0" type="line"/>
      <point x="52.0" y="39.0" type="line"/>
      <point x="52" y="44"/>
      <point x="56" y="48"/>
      <point x="61.0" y="48.0" type="curve"/>
      <point x="62.0" y="48.0" type="line"/>
      <point x="62.0" y="52.0" type="line"/>
      <point x="48.0" y="52.0" type="line"/>
      <point x="48.0" y="52.0" type="line"/>
      <point x="48" y="52"/>
      <point x="48" y="52"/>
      <point x="48.0" y="52.0" type="curve"/>
      <point x="48.0" y="52.0" type="line"/>
    </contour>
    <contour>
      <point x="48.0" y="62.0" type="line"/>
      <point x="48.0" y="48.0" type="line"/>
      <point x="48.0" y="48.0" type="line"/>
      <point x="48" y="48"/>
      <point x="48" y="48"/>
      <point x="48.0" y="48.0" type="curve"/>
      <point x="48.0" y="48.0" type="line"/>
      <point x="62.0" y="48.0" type="line"/>
      <point x="62.0" y="52.0" type="line"/>
      <point x="61.0" y="52.0" type="line"/>
      <point x="56" y="52"/>
      <point x="52" y="56"/>
      <point x="52.0" y="61.0" type="curve"/>
      <point x="52.0" y="62.0" type="line"/>
    </contour>
    <contour>
      <point x="52.0" y="62.0" type="line"/>
      <point x="48.0" y="62.0" type="line"/>
      <point x="48.0" y="61.0" type="line"/>
      <point x="48" y="56"/>
      <point x="44" y="52"/>
      <point x="39.0" y="52.0" type="curve"/>
      <point x="38.0" y="52.0" type="line"/>
      <point x="38.0" y="48.0" type="line"/>
      <point x="52.0" y="48.0" type="line"/>
      <point x="52.0" y="48.0" type="line"/>
      <point x="52" y="48"/>
      <point x="52" y="48"/>
      <point x="52.0" y="48.0" type="curve"/>
      <point x="52.0" y="48.0" type="line"/>
    </contour>
  </outline>
</glyph>
<glyph name="Pix10@01_i" format="2">
  <advance width="100"/>
  <outline>
    <contour>
      <point x="-7" y="-12" type="line"/>
      <point x="-5" y="2" type="line"/>
      <point x="-5" y="2" type="line"/>
      <point x="-5.0" y="2.0"/>
      <point x="-5.0" y="2.0"/>
      <point x="-5" y="2" type="curve"/>
      <point x="-5" y="2" type="line"/>
      <point x="-19" y="2" type="line"/>
      <point x="-19" y="-2" type="line"/>
      <point x="-19" y="-2" type="line"/>
      <point x="-12.3" y="-2.0"/>
      <point x="-9.66" y="-3.959999999999999"/>
      <point x="-11" y="-12" type="curve"/>
      <point x="-11" y="-12" type="line"/>
    </contour>
    <contour>
      <point x="89" y="-12" type="line"/>
      <point x="93" y="-12" type="line"/>
      <point x="93" y="-12" type="line"/>
      <point x="94.34" y="-3.959999999999999"/>
      <point x="98.3" y="-2.0"/>
      <point x="105" y="-2" type="curve"/>
      <point x="105" y="-2" type="line"/>
      <point x="105" y="2" type="line"/>
      <point x="91" y="2" type="line"/>
      <point x="91" y="2" type="line"/>
      <point x="91.0" y="2.0"/>
      <point x="91.0" y="2.0"/>
      <point x="91" y="2" type="curve"/>
      <point x="91" y="2" type="line"/>
    </contour>
    <contour>
      <point x="107" y="112" type="line"/>
      <point x="105" y="98" type="line"/>
      <point x="105" y="98" type="line"/>
      <point x="105.0" y="98.0"/>
      <point x="105.0" y="98.0"/>
      <point x="105" y="98" type="curve"/>
      <point x="105" y="98" type="line"/>
      <point x="119" y="98" type="line"/>
      <point x="119" y="102" type="line"/>
      <point x="119" y="102" type="line"/>
      <point x="112.3" y="102.0"/>
      <point x="109.66" y="103.96"/>
      <point x="111" y="112" type="curve"/>
      <point x="111" y="112" type="line"/>
    </contour>
    <contour>
      <point x="11" y="112" type="line"/>
      <point x="7" y="112" type="line"/>
      <point x="7" y="112" type="line"/>
      <point x="5.66" y="103.96"/>
      <point x="1.7000000000000002" y="102.0"/>
      <point x="-5" y="102" type="curve"/>
      <point x="-5" y="102" type="line"/>
      <point x="-5" y="98" type="line"/>
      <point x="9" y="98" type="line"/>
      <point x="9" y="98" type="line"/>
      <point x="9.0" y="98.0"/>
      <point x="9.0" y="98.0"/>
      <point x="9" y="98" type="curve"/>
      <point x="9" y="98" type="line"/>
    </contour>
  </outline>
</glyph>
<glyph name="Pix10@11_i" format="2">
  <advance width="100"/>
  <outline>
    <contour>
      <point x="-12.0" y="-52.0" type="line"/>
      <point x="-5.0" y="2.0" type="line"/>
      <point x="-5.0" y="2.0" type="line"/>
      <point x="-5.0" y="2.0"/>
      <point x="-5.0" y="2.0"/>
      <point x="-5.0" y="2.0" type="curve"/>
      <point x="-5.0" y="2.0" type="line"/>
      <point x="-59.0" y="2.0" type="line"/>
      <point x="-59.0" y="-2.0" type="line"/>
      <point x="-59.0" y="-2.0" type="line"/>
      <point x="-29.0" y="-2.0"/>
      <point x="-12.0" y="-21.0"/>
      <point x="-16.0" y="-52.0" type="curve"/>
      <point x="-16.0" y="-52.0" type="line"/>
    </contour>
    <contour>
      <point x="84.0" y="-52.0" type="line"/>
      <point x="88.0" y="-52.0" type="line"/>
      <point x="88.0" y="-52.0" type="line"/>
      <point x="92.0" y="-21.0"/>
      <point x="113.99999999999999" y="-2.0"/>
      <point x="145.0" y="-2.0" type="curve"/>
      <point x="145.0" y="-2.0" type="line"/>
      <point x="145.0" y="2.0" type="line"/>
      <point x="91.0" y="2.0" type="line"/>
      <point x="91.0" y="2.0" type="line"/>
      <point x="91.0" y="2.0"/>
      <point x="91.0" y="2.0"/>
      <point x="91.0" y="2.0" type="curve"/>
      <point x="91.0" y="2.0" type="line"/>
    </contour>
    <contour>
      <point x="112.0" y="152.0" type="line"/>
      <point x="105.0" y="98.0" type="line"/>
      <point x="105.0" y="98.0" type="line"/>
      <point x="105.0" y="98.0"/>
      <point x="105.0" y="98.0"/>
      <point x="105.0" y="98.0" type="curve"/>
      <point x="105.0" y="98.0" type="line"/>
      <point x="159.0" y="98.0" type="line"/>
      <point x="159.0" y="102.0" type="line"/>
      <point x="159.0" y="102.0" type="line"/>
      <point x="129.00000000000003" y="102.0"/>
      <point x="112.0" y="120.99999999999999"/>
      <point x="116.0" y="152.0" type="curve"/>
      <point x="116.0" y="152.0" type="line"/>
    </contour>
    <contour>
      <point x="16.0" y="152.0" type="line"/>
      <point x="12.0" y="152.0" type="line"/>
      <point x="12.0" y="152.0" type="line"/>
      <point x="8.0" y="120.99999999999999"/>
      <point x="-14.0" y="102.0"/>
      <point x="-45.0" y="102.0" type="curve"/>
      <point x="-45.0" y="102.0" type="line"/>
      <point x="-45.0" y="98.0" type="line"/>
      <point x="9.0" y="98.0" type="line"/>
      <point x="9.0" y="98.0" type="line"/>
      <point x="9.0" y="98.0"/>
      <point x="9.0" y="98.0"/>
      <point x="9.0" y="98.0" type="curve"/>
      <point x="9.0" y="98.0" type="line"/>
    </contour>
  </outline>
</glyph>
<glyph name="Pix10@21" format="2">
  <advance width="100"/>
  <guideline x="50" y="133" angle="90" identifier="0TEQn04FOP"/>
  <guideline x="68" y="100" angle="0" identifier="j7AK2k8kV6"/>
  <guideline x="125" y="50" angle="0" identifier="VHhNmLRBqe"/>
  <outline>
    <contour>
      <point x="2" y="-102" type="line"/>
      <point x="2" y="2" type="line"/>
      <point x="2" y="2" type="line"/>
      <point x="2.0" y="2.0"/>
      <point x="2.0" y="2.0"/>
      <point x="2" y="2" type="curve"/>
      <point x="2" y="2" type="line"/>
      <point x="-102" y="2" type="line"/>
      <point x="-102" y="-2" type="line"/>
      <point x="-102" y="-2" type="line"/>
      <point x="-47.059999999999995" y="-2.0"/>
      <point x="-2.0" y="-47.059999999999995"/>
      <point x="-2" y="-102" type="curve"/>
      <point x="-2" y="-102" type="line"/>
    </contour>
    <contour>
      <point x="98" y="-102" type="line"/>
      <point x="102" y="-102" type="line"/>
      <point x="102" y="-102" type="line"/>
      <point x="102.0" y="-47.059999999999995"/>
      <point x="147.06" y="-2.0"/>
      <point x="202" y="-2" type="curve"/>
      <point x="202" y="-2" type="line"/>
      <point x="202" y="2" type="line"/>
      <point x="98" y="2" type="line"/>
      <point x="98" y="2" type="line"/>
      <point x="98.0" y="2.0"/>
      <point x="98.0" y="2.0"/>
      <point x="98" y="2" type="curve"/>
      <point x="98" y="2" type="line"/>
    </contour>
    <contour>
      <point x="98" y="202" type="line"/>
      <point x="98" y="98" type="line"/>
      <point x="98" y="98" type="line"/>
      <point x="98.0" y="98.0"/>
      <point x="98.0" y="98.0"/>
      <point x="98" y="98" type="curve"/>
      <point x="98" y="98" type="line"/>
      <point x="202" y="98" type="line"/>
      <point x="202" y="102" type="line"/>
      <point x="202" y="102" type="line"/>
      <point x="147.06" y="102.0"/>
      <point x="102.0" y="147.06"/>
      <point x="102" y="202" type="curve"/>
      <point x="102" y="202" type="line"/>
    </contour>
    <contour>
      <point x="2" y="202" type="line"/>
      <point x="-2" y="202" type="line"/>
      <point x="-2" y="202" type="line"/>
      <point x="-2.0" y="147.06"/>
      <point x="-47.059999999999995" y="102.0"/>
      <point x="-102" y="102" type="curve"/>
      <point x="-102" y="102" type="line"/>
      <point x="-102" y="98" type="line"/>
      <point x="2" y="98" type="line"/>
      <point x="2" y="98" type="line"/>
      <point x="2.0" y="98.0"/>
      <point x="2.0" y="98.0"/>
      <point x="2" y="98" type="curve"/>
      <point x="2" y="98" type="line"/>
    </contour>
  </outline>
</glyph>
<glyph name="Pix11@11_i" format="2">
  <advance width="100"/>
  <outline>
    <contour>
      <point x="-12.0" y="-52.0" type="line"/>
      <point x="-12.0" y="-52.0" type="line"/>
      <point x="-12.0" y="-52.0" type="line"/>
      <point x="-8.0" y="-20.0"/>
      <point x="-27.0" y="2.0"/>
      <point x="-59.0" y="2.0" type="curve"/>
      <point x="-59.0" y="2.0" type="line"/>
      <point x="-59.0" y="2.0" type="line"/>
      <point x="-59.0" y="-2.0" type="line"/>
      <point x="-59.0" y="-2.0" type="line"/>
      <point x="-29.0" y="-2.0"/>
      <point x="-12.0" y="-22.0"/>
      <point x="-16.0" y="-52.0" type="curve"/>
      <point x="-16.0" y="-52.0" type="line"/>
    </contour>
    <contour>
      <point x="84.0" y="-52.0" type="line"/>
      <point x="88.0" y="-52.0" type="line"/>
      <point x="88.0" y="-52.0" type="line"/>
      <point x="92.0" y="-22.0"/>
      <point x="115.0" y="-2.0"/>
      <point x="145.0" y="-2.0" type="curve"/>
      <point x="145.0" y="-2.0" type="line"/>
      <point x="145.0" y="2.0" type="line"/>
      <point x="145.0" y="2.0" type="line"/>
      <point x="145.0" y="2.0" type="line"/>
      <point x="113.0" y="2.0"/>
      <point x="88.0" y="-20.0"/>
      <point x="84.0" y="-52.0" type="curve"/>
      <point x="84.0" y="-52.0" type="line"/>
    </contour>
    <contour>
      <point x="112.0" y="152.0" type="line"/>
      <point x="112.0" y="152.0" type="line"/>
      <point x="112.0" y="152.0" type="line"/>
      <point x="108.0" y="120.0"/>
      <point x="127.0" y="98.0"/>
      <point x="159.0" y="98.0" type="curve"/>
      <point x="159.0" y="98.0" type="line"/>
      <point x="159.0" y="98.0" type="line"/>
      <point x="159.0" y="102.0" type="line"/>
      <point x="159.0" y="102.0" type="line"/>
      <point x="129.00000000000003" y="102.0"/>
      <point x="112.0" y="122.00000000000001"/>
      <point x="116.0" y="152.0" type="curve"/>
      <point x="116.0" y="152.0" type="line"/>
    </contour>
    <contour>
      <point x="16.0" y="152.0" type="line"/>
      <point x="12.0" y="152.0" type="line"/>
      <point x="12.0" y="152.0" type="line"/>
      <point x="8.0" y="122.00000000000001"/>
      <point x="-15.0" y="102.0"/>
      <point x="-45.0" y="102.0" type="curve"/>
      <point x="-45.0" y="102.0" type="line"/>
      <point x="-45.0" y="98.0" type="line"/>
      <point x="-45.0" y="98.0" type="line"/>
      <point x="-45.0" y="98.0" type="line"/>
      <point x="-13.0" y="98.0"/>
      <point x="12.0" y="120.0"/>
      <point x="16.0" y="152.0" type="curve"/>
      <point x="16.0" y="152.0" type="line"/>
    </contour>
  </outline>
</glyph>
<glyph name="Pix12@01_i" format="2">
  <advance width="100"/>
  <outline>
    <contour>
      <point x="-6.0" y="-12.0" type="line"/>
      <point x="-6.0" y="-12.0" type="line"/>
      <point x="-6.0" y="-12.0" type="line"/>
      <point x="-6.0" y="-5.3"/>
      <point x="-11.3" y="2.0"/>
      <point x="-18.0" y="2.0" type="curve"/>
      <point x="-18.0" y="2.0" type="line"/>
      <point x="-18.0" y="2.0" type="line"/>
      <point x="-20.0" y="-12.0" type="line"/>
      <point x="-20.0" y="-12.0" type="line"/>
      <point x="-20.0" y="-12.0"/>
      <point x="-20.0" y="-12.0"/>
      <point x="-20.0" y="-12.0" type="curve"/>
      <point x="-20.0" y="-12.0" type="line"/>
    </contour>
    <contour>
      <point x="90.0" y="-12.0" type="line"/>
      <point x="104.0" y="-12.0" type="line"/>
      <point x="104.0" y="-12.0" type="line"/>
      <point x="104.0" y="-12.0"/>
      <point x="104.0" y="-12.0"/>
      <point x="104.0" y="-12.0" type="curve"/>
      <point x="104.0" y="-12.0" type="line"/>
      <point x="106.0" y="2.0" type="line"/>
      <point x="106.0" y="2.0" type="line"/>
      <point x="106.0" y="2.0" type="line"/>
      <point x="97.96" y="2.0"/>
      <point x="90.0" y="-5.3"/>
      <point x="90.0" y="-12.0" type="curve"/>
      <point x="90.0" y="-12.0" type="line"/>
    </contour>
    <contour>
      <point x="106.0" y="112.0" type="line"/>
      <point x="106.0" y="112.0" type="line"/>
      <point x="106.0" y="112.0" type="line"/>
      <point x="106.0" y="105.3"/>
      <point x="111.3" y="98.0"/>
      <point x="118.0" y="98.0" type="curve"/>
      <point x="118.0" y="98.0" type="line"/>
      <point x="118.0" y="98.0" type="line"/>
      <point x="120.0" y="112.0" type="line"/>
      <point x="120.0" y="112.0" type="line"/>
      <point x="120.0" y="112.0"/>
      <point x="120.0" y="112.0"/>
      <point x="120.0" y="112.0" type="curve"/>
      <point x="120.0" y="112.0" type="line"/>
    </contour>
    <contour>
      <point x="12.0" y="112.0" type="line"/>
      <point x="-2.0" y="112.0" type="line"/>
      <point x="-2.0" y="112.0" type="line"/>
      <point x="-2.0" y="112.0"/>
      <point x="-2.0" y="112.0"/>
      <point x="-2.0" y="112.0" type="curve"/>
      <point x="-2.0" y="112.0" type="line"/>
      <point x="-4.0" y="98.0" type="line"/>
      <point x="-4.0" y="98.0" type="line"/>
      <point x="-4.0" y="98.0" type="line"/>
      <point x="4.040000000000001" y="98.0"/>
      <point x="12.0" y="105.3"/>
      <point x="12.0" y="112.0" type="curve"/>
      <point x="12.0" y="112.0" type="line"/>
    </contour>
  </outline>
</glyph>
